<?xml version="1.0" encoding="iso-8859-1"?>
<!-- Generator: Adobe Illustrator 19.0.0, SVG Export Plug-In . SVG Version: 6.00 Build 0)  -->
<svg xmlns="http://www.w3.org/2000/svg" xmlns:xlink="http://www.w3.org/1999/xlink" version="1.1" id="Layer_1" x="0px" y="0px" viewBox="0 0 512 512" style="enable-background:new 0 0 512 512;" xml:space="preserve">
<path style="fill:#215A60;" d="M504.745,195.319C477.495,83.228,376.475,0,256,0C114.615,0,0,114.615,0,256  c0,120.475,83.228,221.495,195.319,248.745L504.745,195.319z"/>
<path style="fill:#3A4A47;" d="M512,256c0-20.91-2.525-41.227-7.255-60.681L365.078,55.652L331.687,190.33L180.313,38.957v166.956  L69.009,250.435l116.48,116.48l-38.567,89.433l48.397,48.397C214.773,509.475,235.09,512,256,512C397.385,512,512,397.385,512,256z"/>
<g>
	<path style="fill:#B3EFF7;" d="M347.802,317.217h39.537c30.736,0,55.652-24.916,55.652-55.652h-95.189V317.217z"/>
	<path style="fill:#B3EFF7;" d="M164.198,194.783h-39.537c-30.736,0-55.652,24.916-55.652,55.652h95.189V194.783z"/>
</g>
<path style="fill:#57BAC8;" d="M151.719,423.661c-2.639,8.795-4.797,23.505-4.797,32.687h33.391l11.13-94.609L163.617,384  L151.719,423.661z"/>
<path style="fill:#3D95A1;" d="M208.907,423.661c2.639,8.795,4.797,23.505,4.797,32.687h-33.391v-94.609L197.009,384  L208.907,423.661z"/>
<path style="fill:#71DFEE;" d="M113.53,222.609c0.567,61.785,19.679,117.727,50.087,161.391h16.696l22.261-247.507h-75.91  C118.428,163.317,113.809,192.301,113.53,222.609z"/>
<g>
	<rect x="158.05" y="270.44" style="fill:#57BAC8;" width="30" height="20"/>
	<rect x="138.05" y="230.44" style="fill:#57BAC8;" width="20" height="20"/>
</g>
<path style="fill:#B3EFF7;" d="M180.313,136.493V384h16.696c30.408-43.665,49.52-99.606,50.087-161.391  c-0.278-30.308-4.897-59.292-13.134-86.116H180.313z"/>
<path style="fill:#57BAC8;" d="M126.664,136.493c15.905,8.782,34.193,13.768,53.649,13.768l22.261-55.652l-22.261-55.652  C156.716,65.703,138.162,98.983,126.664,136.493z"/>
<path style="fill:#FFFFFF;" d="M180.313,205.912c12.294,0,22.261-9.966,22.261-22.26V139.13l-22.261,11.13V205.912z"/>
<path style="fill:#3D95A1;" d="M180.313,150.261V38.957c23.597,26.746,42.151,60.026,53.649,97.536  C218.056,145.274,199.769,150.261,180.313,150.261z"/>
<path style="fill:#E4D9D3;" d="M165.313,105.209l-7.5,15l7.5,15c8.284,0,15-6.716,15-15S173.597,105.209,165.313,105.209z"/>
<path style="fill:#FFFFFF;" d="M150.313,120.209c0,8.284,6.716,15,15,15v-30C157.029,105.209,150.313,111.924,150.313,120.209z"/>
<path style="fill:#3D95A1;" d="M360.281,88.339c2.639-8.795,4.797-23.505,4.797-32.687h-33.391l-11.13,94.609L348.383,128  L360.281,88.339z"/>
<path style="fill:#57BAC8;" d="M303.093,88.339c-2.639-8.795-4.797-23.505-4.797-32.687h33.391v94.609L314.991,128L303.093,88.339z"/>
<path style="fill:#71DFEE;" d="M398.47,289.391c-0.567-61.785-19.679-117.727-50.087-161.391h-16.696l-22.261,247.507h75.91  C393.572,348.683,398.191,319.699,398.47,289.391z"/>
<g>
	<rect x="353.95" y="261.56" style="fill:#57BAC8;" width="20" height="20"/>
	<rect x="323.95" y="221.56" style="fill:#57BAC8;" width="30" height="20"/>
</g>
<path style="fill:#B3EFF7;" d="M331.687,375.507V128h-16.696c-30.408,43.665-49.52,99.606-50.087,161.391  c0.278,30.308,4.897,59.292,13.134,86.116H331.687z"/>
<path style="fill:#3D95A1;" d="M385.336,375.507c-15.905-8.782-34.193-13.768-53.649-13.768l-22.261,55.652l22.261,55.652  C355.284,446.297,373.838,413.017,385.336,375.507z"/>
<path style="fill:#FFFFFF;" d="M331.687,306.088c-12.294,0-22.261,9.966-22.261,22.26V384l22.261-22.261V306.088z"/>
<path style="fill:#57BAC8;" d="M331.687,361.739v111.304c-23.597-26.746-42.151-60.026-53.649-97.536  C293.944,366.726,312.231,361.739,331.687,361.739z"/>
<path style="fill:#E4D9D3;" d="M346.687,376.791l-7.5,15l7.5,15c8.284,0,15-6.716,15-15S354.971,376.791,346.687,376.791z"/>
<path style="fill:#FFFFFF;" d="M331.687,391.791c0,8.284,6.716,15,15,15v-30C338.403,376.791,331.687,383.507,331.687,391.791z"/>
<g>
</g>
<g>
</g>
<g>
</g>
<g>
</g>
<g>
</g>
<g>
</g>
<g>
</g>
<g>
</g>
<g>
</g>
<g>
</g>
<g>
</g>
<g>
</g>
<g>
</g>
<g>
</g>
<g>
</g>
</svg>
