<?xml version="1.0" encoding="iso-8859-1"?>
<!-- Generator: Adobe Illustrator 19.0.0, SVG Export Plug-In . SVG Version: 6.00 Build 0)  -->
<svg xmlns="http://www.w3.org/2000/svg" xmlns:xlink="http://www.w3.org/1999/xlink" version="1.1" id="Layer_1" x="0px" y="0px" viewBox="0 0 512 512" style="enable-background:new 0 0 512 512;" xml:space="preserve">
<path style="fill:#AE5235;" d="M508.36,212.846C487.844,92.013,382.675,0,256,0C114.615,0,0,114.615,0,256s114.615,256,256,256  c8.938,0,17.768-0.462,26.471-1.356L508.36,212.846z"/>
<path style="fill:#854936;" d="M512,256c0-14.709-1.258-29.123-3.64-43.154L342.817,47.303l-38.245,116.949L200.664,60.343  l-23.611,117.265L66.308,216.961l189.101,189.101L256,484.174l26.47,26.47C411.418,497.398,512,388.447,512,256z"/>
<path style="fill:#937D75;" d="M233.739,391.42L256,484.174c20.18-13.869,33.391-36.944,33.391-63.073L233.739,391.42z"/>
<path style="fill:#AE9B95;" d="M222.609,421.101c0,26.128,13.212,49.203,33.391,63.073V391.42L222.609,421.101z"/>
<polygon style="fill:#FFE3C6;" points="213.704,177.345 169.183,177.345 169.183,147.477 191.443,125.216 213.704,147.477 "/>
<polygon style="fill:#FECD99;" points="342.817,177.345 298.296,177.345 298.296,147.477 320.557,125.216 342.817,147.477 "/>
<path style="fill:#5D4036;" d="M169.183,47.303c24.589,0,44.522,19.933,44.522,44.522v55.652h-44.522V47.303z"/>
<path style="fill:#1F2928;" d="M342.817,47.303c-24.589,0-44.522,19.933-44.522,44.522v55.652h44.522V47.303z"/>
<path style="fill:#FECD99;" d="M465.252,169.738c0,36.883-29.9,66.783-66.783,66.783h-77.913v-36.783l124.695-30L465.252,169.738z"/>
<path style="fill:#937D75;" d="M445.252,169.738c0,25.796-20.986,46.783-46.782,46.783h-77.913l55.652-46.783H445.252z"/>
<path style="fill:#FFE3C6;" d="M46.748,169.738c0,36.883,29.9,66.783,66.783,66.783h77.913v-36.783l-124.695-30L46.748,169.738z"/>
<path style="fill:#AE9B95;" d="M66.748,169.738c0,25.796,20.986,46.783,46.782,46.783h77.913l-55.652-46.783H66.748z"/>
<path style="fill:#FECD99;" d="M169.182,169.738h-33.391l27.902,167.411c3.019,18.115,20.515,32.937,38.881,32.937H256V191.999  L169.182,169.738z"/>
<path style="fill:#FEAA78;" d="M342.817,169.738L256,191.999v178.087h53.426c18.365,0,35.861-14.822,38.881-32.937l27.902-167.411  L342.817,169.738L342.817,169.738z"/>
<path style="fill:#FFE3C6;" d="M256,169.738l-36.73,128l36.73,128h31.165c18.365,0,34.693-14.97,36.284-33.266l19.368-222.734  L256,169.738L256,169.738z"/>
<path style="fill:#FFEEDD;" d="M169.183,169.738l19.368,222.734c1.591,18.296,17.919,33.266,36.284,33.266H256v-256L169.183,169.738  L169.183,169.738z"/>
<polygon style="fill:#FEAA78;" points="256.001,361.69 246.001,371.69 256.001,381.69 286.001,381.69 286.001,361.69 "/>
<rect x="226" y="361.69" style="fill:#FECD99;" width="30" height="20"/>
<g>
</g>
<g>
</g>
<g>
</g>
<g>
</g>
<g>
</g>
<g>
</g>
<g>
</g>
<g>
</g>
<g>
</g>
<g>
</g>
<g>
</g>
<g>
</g>
<g>
</g>
<g>
</g>
<g>
</g>
</svg>
