<?xml version="1.0" encoding="iso-8859-1"?>
<!-- Generator: Adobe Illustrator 19.0.0, SVG Export Plug-In . SVG Version: 6.00 Build 0)  -->
<svg xmlns="http://www.w3.org/2000/svg" xmlns:xlink="http://www.w3.org/1999/xlink" version="1.1" id="Layer_1" x="0px" y="0px" viewBox="0 0 511.999 511.999" style="enable-background:new 0 0 511.999 511.999;" xml:space="preserve">
<path style="fill:#FECD99;" d="M498.191,172.899c-12.245-35.774-32.624-69.378-61.163-97.918  c-99.976-99.976-262.068-99.976-362.045,0s-99.976,262.068,0,362.045c29.951,29.951,65.481,50.92,103.244,62.925L498.191,172.899z"/>
<path style="fill:#FEAA78;" d="M437.028,437.025c71.436-71.436,91.814-174.584,61.163-264.127l-79.538-79.537L305.513,206.5  l-28.29-28.29l-25.014,3.82l20.502,57.273L167.905,344.108l-97.415,48.108L178.226,499.95  C266.509,528.018,367.003,507.049,437.028,437.025z"/>
<polygon style="fill:#FF8756;" points="262.806,192.626 235.935,191.212 237.35,218.083 265.64,246.373 291.096,220.917 "/>
<polygon style="fill:#FF6434;" points="291.096,220.917 265.64,246.373 293.93,274.664 320.801,276.078 319.387,249.207 "/>
<polygon style="fill:#FFFFFF;" points="227.73,284.283 100.444,156.996 107.515,135.783 241.874,270.141 "/>
<polygon style="fill:#785E55;" points="100.444,156.996 72.159,128.712 86.302,114.569 125.193,132.247 "/>
<path style="fill:#FF6434;" d="M197.056,145.576c-21.694-1.669-40.43-3.11-61.256-23.935l-28.284-28.284l-21.213,21.213  l28.284,28.284c28.672,28.672,56.031,30.777,80.168,32.634c0,0,21.77,21.77,42.596,42.596l39.874-39.874  C248.551,149.537,221.192,147.432,197.056,145.576z"/>
<polygon style="fill:#E4D9D3;" points="227.73,284.283 355.017,411.57 376.231,404.499 241.874,270.141 "/>
<polygon style="fill:#5D4036;" points="355.017,411.57 383.302,439.854 397.445,425.712 379.767,386.821 "/>
<path style="fill:#D75A35;" d="M390.374,376.213c-20.825-20.825-22.266-39.561-23.935-61.255  c-1.856-24.137-3.961-51.496-32.634-80.168l-39.874,39.874c20.825,20.825,42.596,42.596,42.596,42.596  c1.856,24.137,3.961,51.496,32.634,80.168l28.284,28.284l21.213-21.213L390.374,376.213z"/>
<polygon style="fill:#785E55;" points="148.61,384.605 127.407,363.401 330.252,160.537 347.932,164.07 351.471,181.745 "/>
<polygon style="fill:#D75A35;" points="176.653,384.667 162.225,399.096 123.43,360.3 167.905,344.108 "/>
<g>
	<polygon style="fill:#FF6434;" points="167.905,344.108 137.572,374.442 112.918,349.789 127.347,335.36  "/>
	<polygon style="fill:#FF6434;" points="162.225,399.096 119.798,441.522 111.049,400.964 118.122,365.608 153.477,358.536  "/>
</g>
<polygon style="fill:#FF8756;" points="153.477,358.536 111.049,400.964 70.491,392.216 112.918,349.789 "/>
<polygon style="fill:#5D4036;" points="351.471,181.745 330.267,160.541 344.409,146.399 362.082,149.93 365.613,167.603 "/>
<polygon style="fill:#E4D9D3;" points="386.832,188.821 418.652,93.361 380.361,118.709 355.012,157.002 "/>
<polygon style="fill:#FFFFFF;" points="355.012,157.002 418.652,93.361 323.192,125.181 "/>
<g>
</g>
<g>
</g>
<g>
</g>
<g>
</g>
<g>
</g>
<g>
</g>
<g>
</g>
<g>
</g>
<g>
</g>
<g>
</g>
<g>
</g>
<g>
</g>
<g>
</g>
<g>
</g>
<g>
</g>
</svg>
