<?xml version="1.0" encoding="iso-8859-1"?>
<!-- Generator: Adobe Illustrator 19.0.0, SVG Export Plug-In . SVG Version: 6.00 Build 0)  -->
<svg xmlns="http://www.w3.org/2000/svg" xmlns:xlink="http://www.w3.org/1999/xlink" version="1.1" id="Layer_1" x="0px" y="0px" viewBox="0 0 512 512" style="enable-background:new 0 0 512 512;" xml:space="preserve">
<path style="fill:#71DFEE;" d="M504.515,194.378C476.93,82.762,376.138,0,256,0C114.615,0,0,114.615,0,256  c0,120.705,83.546,221.882,195.961,248.902L504.515,194.378z"/>
<path style="fill:#57BAC8;" d="M512,256c0-21.247-2.606-41.883-7.485-61.622L389.927,79.789l-14.141,28.283l-37.071-37.071l-20,55  l43.168,43.168l-45.961,9.625L213.988,76.86l-7.891,30.391l-36.25-36.25l-22.307,105l55.357,55.357l-33.046,14.643l28.474,28.474  l-12.865,7.135l-62.038-62.038l-4.141,96.426L135.67,444.61l60.292,60.292C215.221,509.531,235.321,512,256,512  C397.385,512,512,397.385,512,256z"/>
<path style="fill:#215A60;" d="M109.281,213.714c11.044,0,19.998,8.954,20,20v12.287l-20,32.713L109.281,213.714z"/>
<path style="fill:#3A4A47;" d="M119.281,321.001l10-15.002v-59.998h-9.996c-16.569-0.003-30,13.428-30,30v30h19.996L119.281,321.001  z"/>
<polygon style="fill:#1F2928;" points="348.711,335.432 348.711,276.001 368.711,286.001 368.711,335.432 "/>
<g>
	<polygon style="fill:#3A4A47;" points="169.85,335.432 169.85,286.001 189.85,276.001 189.85,335.432  "/>
	<path style="fill:#3A4A47;" d="M269.281,305.999l10,75c0,38.66-41.34,80-80,80s-80-41.34-80-80l10-75h20v75c0,27.57,22.43,50,50,50   s50-22.43,50-50v-75H269.281z"/>
</g>
<path style="fill:#1F2928;" d="M289.281,305.999v75c0,49.63-40.37,90-90,90s-90-40.37-90-90v-75h20v75c0,38.66,31.34,70,70,70  s70-31.34,70-70v-75H289.281z"/>
<g>
	<path style="fill:#215A60;" d="M139.85,156.001c0,16.5,13.5,30,30,30h69.431l-20-30h-49.434l-14.998-20L139.85,156.001z"/>
	<path style="fill:#215A60;" d="M199.847,61.001c11.044,0,19.998,8.954,20,20v45h-40l20-20V61.001z"/>
</g>
<path style="fill:#1F2928;" d="M169.846,61.001v45h30v20c0,16.572-13.431,30.003-30,30H139.85l-0.004-65  C139.85,74.433,153.281,61.001,169.846,61.001z"/>
<g>
	<path style="fill:#215A60;" d="M398.711,156.001c0,16.5-13.5,30-30,30H299.28l20-30h49.434l14.998-20L398.711,156.001z"/>
	<path style="fill:#215A60;" d="M338.715,61.001c-11.044,0-19.998,8.954-20,20v45h40l-20-20V61.001z"/>
</g>
<path style="fill:#1F2928;" d="M368.715,61.001v45h-30v20c0,16.572,13.431,30.003,30,30h29.996l0.004-65  C398.712,74.433,385.28,61.001,368.715,61.001z"/>
<rect x="169.85" y="266" style="fill:#215A60;" width="69.43" height="20"/>
<g>
	<rect x="169.85" y="226" style="fill:#3A4A47;" width="69.43" height="20"/>
	<rect x="299.28" y="266" style="fill:#3A4A47;" width="69.43" height="20"/>
</g>
<rect x="299.28" y="226" style="fill:#1F2928;" width="69.43" height="20"/>
<polygon style="fill:#3A4A47;" points="239.281,286.001 269.281,346.001 289.281,346.001 319.281,306.001 "/>
<polygon style="fill:#215A60;" points="219.281,306.001 249.281,346.001 269.281,346.001 269.281,276.001 "/>
<polygon style="fill:#1F2928;" points="319.281,306.001 319.281,266.001 249.281,236.001 269.281,306.001 "/>
<g>
	<polygon style="fill:#3A4A47;" points="269.281,236.001 219.281,266.001 219.281,306.001 269.281,306.001  "/>
	<polygon style="fill:#3A4A47;" points="319.281,266.001 319.281,226.001 249.281,176.001 269.281,266.001  "/>
</g>
<polygon style="fill:#215A60;" points="269.281,176.001 219.281,226.001 219.281,266.001 269.281,266.001 "/>
<polygon style="fill:#1F2928;" points="319.281,226.001 319.281,156.001 269.281,156.001 249.281,181.001 269.281,226.001 "/>
<rect x="219.28" y="156" style="fill:#3A4A47;" width="50" height="70"/>
<g>
</g>
<g>
</g>
<g>
</g>
<g>
</g>
<g>
</g>
<g>
</g>
<g>
</g>
<g>
</g>
<g>
</g>
<g>
</g>
<g>
</g>
<g>
</g>
<g>
</g>
<g>
</g>
<g>
</g>
</svg>
