<?xml version="1.0" encoding="iso-8859-1"?>
<!-- Generator: Adobe Illustrator 19.0.0, SVG Export Plug-In . SVG Version: 6.00 Build 0)  -->
<svg xmlns="http://www.w3.org/2000/svg" xmlns:xlink="http://www.w3.org/1999/xlink" version="1.1" id="Layer_1" x="0px" y="0px" viewBox="0 0 512 512" style="enable-background:new 0 0 512 512;" xml:space="preserve">
<path style="fill:#57BAC8;" d="M511.672,242.96C504.882,107.634,393.011,0,256,0C114.615,0,0,114.615,0,256  c0,117.866,79.662,217.111,188.076,246.873L511.672,242.96z"/>
<path style="fill:#3D95A1;" d="M512,256c0-4.374-0.111-8.721-0.328-13.041L334.704,65.992L177.296,256.791L256,335.495  L98.602,413.398l89.475,89.475C209.71,508.812,232.481,512,256,512C397.385,512,512,397.385,512,256z"/>
<rect x="233.74" y="256" style="fill:#5D4036;" width="116.87" height="133.56"/>
<rect x="161.39" y="256" style="fill:#854936;" width="94.61" height="133.56"/>
<path style="fill:#FECD99;" d="M345.043,322.782H256l-44.522,77.913L256,478.609c75.69,0,142.545-37.785,182.764-95.511  C423.521,349.864,381.533,322.782,345.043,322.782z"/>
<path style="fill:#FFE3C6;" d="M166.957,322.782c-36.49,0-78.477,27.081-93.721,60.315C113.455,440.824,180.31,478.609,256,478.609  V322.782H166.957z"/>
<path style="fill:#AE5235;" d="M393.982,264.354c4.267-7.37,6.721-15.921,6.721-25.05c0-5.333-0.841-10.468-2.379-15.296  l-36.315-113.304C347.65,65.86,305.622,33.393,256.003,33.393l-55.651,127.999l55.655,105.738h44.515V384  c0,24.589,19.933,44.522,44.522,44.522s44.522-19.933,44.522-44.522c0-3.916-0.51-7.713-1.46-11.331  c7.829-8.838,12.59-20.455,12.59-33.191c0-9.126-2.453-17.675-6.717-25.044c4.264-7.369,6.717-15.917,6.717-25.043  C400.696,280.267,398.244,271.721,393.982,264.354z"/>
<path style="fill:#D75A35;" d="M149.998,110.703l-36.315,113.304c-1.538,4.829-2.379,9.964-2.379,15.296  c0,9.126,2.453,17.675,6.717,25.043c-4.264,7.369-6.717,15.917-6.717,25.044c0,9.126,2.453,17.675,6.717,25.043  c-4.264,7.369-6.717,15.917-6.717,25.044c0,12.735,4.761,24.353,12.59,33.191c-0.95,3.618-1.46,7.415-1.46,11.331  c0,24.589,19.933,44.522,44.522,44.522s44.522-19.933,44.522-44.522V267.13H256l0.004-233.738  C206.385,33.393,164.356,65.86,149.998,110.703z"/>
<path style="fill:#FECD99;" d="M256.004,110.705l-44.522,89.344l44.522,89.344c61.473,0,111.304-49.831,111.304-111.304v-33.391  c0-11.854-1.848-23.285-5.287-33.992C362.01,110.705,256.004,110.705,256.004,110.705z"/>
<path style="fill:#FFE3C6;" d="M256.004,110.705v178.688c-61.473,0-111.304-49.831-111.304-111.304v-33.391  c0-11.854,1.848-23.285,5.287-33.992C149.986,110.705,138.867,110.705,256.004,110.705z"/>
<circle style="fill:#FECD99;" cx="189.22" cy="199.75" r="22.261"/>
<circle style="fill:#FEAA78;" cx="322.79" cy="199.75" r="22.261"/>
<rect x="189.48" y="145.23" style="fill:#854936;" width="44" height="20"/>
<rect x="278.52" y="145.23" style="fill:#5D4036;" width="44" height="20"/>
<g>
</g>
<g>
</g>
<g>
</g>
<g>
</g>
<g>
</g>
<g>
</g>
<g>
</g>
<g>
</g>
<g>
</g>
<g>
</g>
<g>
</g>
<g>
</g>
<g>
</g>
<g>
</g>
<g>
</g>
</svg>
