<?xml version="1.0" encoding="iso-8859-1"?>
<!-- Generator: Adobe Illustrator 19.0.0, SVG Export Plug-In . SVG Version: 6.00 Build 0)  -->
<svg xmlns="http://www.w3.org/2000/svg" xmlns:xlink="http://www.w3.org/1999/xlink" version="1.1" id="Layer_1" x="0px" y="0px" viewBox="0 0 512 512" style="enable-background:new 0 0 512 512;" xml:space="preserve">
<path style="fill:#FFE3C6;" d="M503.868,191.752C475.362,81.464,375.196,0,256,0C114.615,0,0,114.615,0,256  c0,119.202,81.473,219.373,191.77,247.872L503.868,191.752z"/>
<path style="fill:#FECD99;" d="M512,256c0-22.189-2.826-43.717-8.132-64.248l-73.971-73.971L82.03,394.132l109.74,109.74  C212.295,509.176,233.818,512,256,512C397.385,512,512,397.385,512,256z"/>
<path style="fill:#FF6434;" d="M478.609,256c0-11.97-3.177-23.613-9.109-33.815c2.488-11.534,1.912-23.591-1.787-34.976  c-3.699-11.384-10.32-21.475-19.111-29.344c-1.199-11.739-5.472-23.027-12.508-32.711c-7.036-9.684-16.451-17.236-27.246-22.003  c-4.766-10.795-12.318-20.209-22.003-27.245c-9.72-7.062-20.917-11.329-32.717-12.515c-7.867-8.789-17.958-15.407-29.339-19.105  c-6.749-2.192-13.747-3.304-20.799-3.304c-4.808,0-9.548,0.506-14.189,1.51c-10.198-5.926-21.836-9.1-33.801-9.1L189.217,256  L256,478.609c11.965,0,23.603-3.174,33.801-9.1c4.641,1.004,9.382,1.51,14.189,1.51c7.052,0,14.05-1.112,20.8-3.305  c11.38-3.698,21.471-10.316,29.338-19.105c11.799-1.186,22.998-5.453,32.716-12.514c9.686-7.036,17.238-16.451,22.004-27.246  c10.795-4.767,20.21-12.319,27.246-22.003s11.309-20.973,12.508-32.711c8.791-7.87,15.412-17.961,19.112-29.345  c3.698-11.384,4.274-23.441,1.786-34.975C475.432,279.613,478.609,267.97,478.609,256z"/>
<path style="fill:#FF8756;" d="M222.199,42.491c-4.641-1.004-9.382-1.51-14.189-1.51c-7.052,0-14.05,1.112-20.8,3.305  c-11.382,3.698-21.471,10.316-29.338,19.105c-11.8,1.186-22.998,5.452-32.716,12.514c-9.686,7.036-17.238,16.451-22.004,27.246  c-10.795,4.767-20.21,12.319-27.246,22.003s-11.309,20.972-12.508,32.711c-8.791,7.869-15.412,17.961-19.112,29.345  c-3.698,11.384-4.274,23.441-1.786,34.975c-5.932,10.202-9.109,21.845-9.109,33.815s3.177,23.613,9.109,33.815  c-2.488,11.534-1.912,23.591,1.787,34.976c3.699,11.383,10.32,21.475,19.111,29.344c1.199,11.738,5.472,23.027,12.508,32.711  c7.036,9.684,16.451,17.236,27.246,22.003c4.766,10.795,12.318,20.209,22.003,27.245c9.72,7.062,20.917,11.329,32.717,12.515  c7.867,8.789,17.958,15.407,29.339,19.105c6.749,2.192,13.747,3.304,20.799,3.304c4.808,0,9.548-0.506,14.189-1.51  c10.198,5.926,21.836,9.1,33.801,9.1V33.391C244.035,33.391,232.397,36.566,222.199,42.491z"/>
<path style="fill:#D75A35;" d="M286.267,64.901c9.868-4.318,21.292-5.184,32.342-1.593c11.05,3.59,19.783,11.006,25.229,20.299  c10.72-1.057,21.852,1.65,31.252,8.479c9.4,6.829,15.414,16.581,17.721,27.102c10.521,2.307,20.273,8.322,27.102,17.721  s9.536,20.532,8.479,31.252c9.293,5.446,16.709,14.179,20.299,25.229c3.59,11.05,2.725,22.474-1.593,32.342  c7.156,8.051,11.51,18.648,11.51,30.267c0,11.619-4.354,22.216-11.51,30.267c4.318,9.868,5.183,21.292,1.593,32.342  c-3.591,11.05-11.006,19.783-20.299,25.229c1.057,10.719-1.65,21.852-8.479,31.252c-6.829,9.4-16.581,15.414-27.102,17.721  c-2.307,10.522-8.322,20.273-17.721,27.102c-9.4,6.829-20.532,9.536-31.252,8.479c-5.446,9.294-14.179,16.709-25.229,20.299  c-11.05,3.59-22.474,2.725-32.342-1.593c-8.051,7.156-18.648,11.51-30.267,11.51L195.218,256L256,53.392  C267.619,53.392,278.216,57.745,286.267,64.901z"/>
<path style="fill:#FF6434;" d="M225.733,64.901c-9.868-4.318-21.292-5.184-32.342-1.593c-11.05,3.59-19.783,11.006-25.229,20.299  c-10.72-1.057-21.852,1.65-31.252,8.479c-9.4,6.829-15.414,16.581-17.721,27.102c-10.521,2.307-20.273,8.322-27.102,17.721  c-6.829,9.4-9.536,20.532-8.479,31.252c-9.293,5.446-16.709,14.179-20.299,25.229s-2.725,22.474,1.593,32.342  c-7.156,8.051-11.51,18.648-11.51,30.267c0,11.619,4.354,22.216,11.51,30.267c-4.318,9.868-5.183,21.292-1.593,32.342  c3.591,11.05,11.006,19.783,20.299,25.229c-1.057,10.719,1.65,21.852,8.479,31.252c6.829,9.4,16.581,15.414,27.102,17.721  c2.307,10.522,8.321,20.273,17.721,27.102c9.4,6.829,20.532,9.536,31.252,8.479c5.446,9.294,14.179,16.709,25.229,20.299  s22.474,2.725,32.342-1.593c8.051,7.156,18.648,11.51,30.267,11.51V53.392C244.381,53.392,233.784,57.745,225.733,64.901z"/>
<g>
	<rect x="98.91" y="274.87" style="fill:#D75A35;" width="20" height="20"/>
	<rect x="128.91" y="304.87" style="fill:#D75A35;" width="20" height="20"/>
</g>
<rect x="363.1" y="304.87" style="fill:#AE5235;" width="20" height="20"/>
<polygon style="fill:#FF8756;" points="322.783,152.743 367.304,222.074 233.739,351.655 256,152.743 "/>
<g>
	<path style="fill:#FEAA78;" d="M256,296.003l-22.261,33.391L256,370.387h22.261c18.365,0,35.862-14.815,38.879-32.935l6.912-41.45   l43.253-73.928H281l5,73.928h-30V296.003z"/>
	<polygon style="fill:#FEAA78;" points="189.217,152.743 144.696,222.074 256,351.655 256,152.743  "/>
</g>
<path style="fill:#FECD99;" d="M166.717,130.243c-12.426,0-22.5,10.074-22.5,22.5h45  C189.217,140.317,179.144,130.243,166.717,130.243z"/>
<path style="fill:#FEAA78;" d="M345.283,130.243c-12.426,0-22.5,10.074-22.5,22.5h45  C367.783,140.317,357.709,130.243,345.283,130.243z"/>
<path style="fill:#FECD99;" d="M256,296.003v74.385h-22.261c-18.365,0-35.862-14.815-38.879-32.935l-6.912-41.45l-43.253-73.928H231  l-5,73.928H256z"/>
<polygon style="fill:#854936;" points="256,319.394 246,329.394 256,339.394 286,339.394 286,319.394 "/>
<rect x="226" y="319.39" style="fill:#AE5235;" width="30" height="20"/>
<g>
</g>
<g>
</g>
<g>
</g>
<g>
</g>
<g>
</g>
<g>
</g>
<g>
</g>
<g>
</g>
<g>
</g>
<g>
</g>
<g>
</g>
<g>
</g>
<g>
</g>
<g>
</g>
<g>
</g>
</svg>
