<?xml version="1.0" encoding="iso-8859-1"?>
<!-- Generator: Adobe Illustrator 19.0.0, SVG Export Plug-In . SVG Version: 6.00 Build 0)  -->
<svg xmlns="http://www.w3.org/2000/svg" xmlns:xlink="http://www.w3.org/1999/xlink" version="1.1" id="Layer_1" x="0px" y="0px" viewBox="0 0 512 512" style="enable-background:new 0 0 512 512;" xml:space="preserve">
<path style="fill:#785E55;" d="M491.91,156.421C453.067,64.506,362.067,0,256,0C114.615,0,0,114.615,0,256  c0,127.519,93.242,233.246,215.263,252.76C215.261,508.76,491.91,156.421,491.91,156.421z"/>
<path style="fill:#5D4036;" d="M512,256c0-35.318-7.153-68.965-20.087-99.573c-0.003-0.006-79.367-79.371-79.367-79.371  l-12.007,35.212l-44.994-44.994l-25.623,71.855l-30.53-30.53l-10.13,55.652l-55.652-55.652l-12.119,9.881l-41.424-41.424  l-8.587,38.633l-48.414-48.414l-11.13,61.217l-68.1,148.255l58.133,58.133l-19.891,19.891l39.997,39.997l-10.391,10.393  L215.261,508.76c13.27,2.122,26.873,3.24,40.739,3.24C397.385,512,512,397.385,512,256z"/>
<polygon style="fill:#FEAA78;" points="230.068,337.478 215.588,327.007 205.082,312.553 199.533,295.578 75.896,335.75   82.076,354.771 199.48,316.624 99.923,388.983 111.682,405.161 211.539,332.584 139.233,432.179 155.417,443.929 227.942,344.033   189.972,461.104 208.996,467.274 249.103,343.616 "/>
<g>
	<polygon style="fill:#FF8756;" points="281.932,337.478 296.412,327.007 306.918,312.553 312.467,295.578 436.104,335.75    429.924,354.771 312.52,316.624 412.076,388.983 400.318,405.161 300.461,332.584 372.767,432.179 356.582,443.929    284.058,344.033 322.028,461.104 303.004,467.274 262.897,343.616  "/>
	<path style="fill:#FF8756;" d="M422.327,253.165l-0.004-57.89l-22.257-31.153h44.518c18.365,0,33.391,15.026,33.391,33.391v33.391   L422.327,253.165z"/>
</g>
<path style="fill:#FECD99;" d="M366.675,230.904v55.652h77.909c18.365,0,33.391-15.026,33.391-33.391v-22.261H366.675z"/>
<g>
	<path style="fill:#FF8756;" d="M156.456,67.275c18.438,0,33.387,14.95,33.391,33.391v50.087h-55.652l22.261-22.261L156.456,67.275   L156.456,67.275z"/>
	<path style="fill:#FF8756;" d="M89.673,253.165l-0.004-57.89l22.265-31.153H67.416c-18.365,0-33.391,15.026-33.391,33.391v33.391   L89.673,253.165z"/>
</g>
<path style="fill:#FF6434;" d="M123.064,67.275v61.217h33.391v33.391c0,18.446-14.949,33.395-33.391,33.391H89.677l-0.004-94.608  C89.677,82.225,104.627,67.275,123.064,67.275z"/>
<path style="fill:#FF8756;" d="M355.544,67.275c-18.438,0-33.387,14.95-33.391,33.391v50.087h55.652l-22.261-22.261L355.544,67.275  L355.544,67.275z"/>
<path style="fill:#FF6434;" d="M388.935,67.275v61.217h-33.391v33.391c0,18.446,14.949,33.395,33.391,33.391h33.387l0.004-94.608  C422.323,82.225,407.373,67.275,388.935,67.275z"/>
<path style="fill:#FECD99;" d="M145.325,230.904v55.652H67.416c-18.365,0-33.391-15.026-33.391-33.391v-22.261H145.325z"/>
<polygon style="fill:#AE5235;" points="299.391,108.599 279.391,108.599 279.391,154.375 289.391,165.505 299.391,154.375 "/>
<g>
	<rect x="279.39" y="154.37" style="fill:#D75A35;" width="20" height="54.27"/>
	<polygon style="fill:#D75A35;" points="233.609,108.599 233.609,154.375 222.609,165.505 211.609,154.375 211.609,108.599  "/>
</g>
<g>
	<rect x="211.61" y="154.37" style="fill:#FF6434;" width="22" height="54.27"/>
	<path style="fill:#FF6434;" d="M355.544,197.513H256l-33.391,111.304L256,420.121c73.766,0,133.565-59.799,133.565-133.565   C389.565,252.345,376.697,221.143,355.544,197.513z"/>
</g>
<path style="fill:#FF8756;" d="M156.456,197.513c-21.153,23.631-34.021,54.832-34.021,89.043  c0,73.766,59.799,133.565,133.565,133.565V197.513H156.456z"/>
<g>
	<rect x="190.3" y="317.69" style="fill:#FF6434;" width="20" height="20"/>
	<rect x="160.3" y="287.69" style="fill:#FF6434;" width="20" height="20"/>
</g>
<g>
</g>
<g>
</g>
<g>
</g>
<g>
</g>
<g>
</g>
<g>
</g>
<g>
</g>
<g>
</g>
<g>
</g>
<g>
</g>
<g>
</g>
<g>
</g>
<g>
</g>
<g>
</g>
<g>
</g>
</svg>
