<?xml version="1.0" encoding="iso-8859-1"?>
<!-- Generator: Adobe Illustrator 19.0.0, SVG Export Plug-In . SVG Version: 6.00 Build 0)  -->
<svg xmlns="http://www.w3.org/2000/svg" xmlns:xlink="http://www.w3.org/1999/xlink" version="1.1" id="Layer_1" x="0px" y="0px" viewBox="0 0 512 512" style="enable-background:new 0 0 512 512;" xml:space="preserve">
<path style="fill:#FF8756;" d="M510.865,231.925C498.728,101.832,389.264,0,256,0C114.615,0,0,114.615,0,256  c0,130.674,97.911,238.471,224.37,254.055L510.865,231.925z"/>
<path style="fill:#FF6434;" d="M22.261,287.198l75.13,75.13l-10.373,10.373L224.37,510.055C234.736,511.332,245.289,512,256,512  c141.385,0,256-114.615,256-256c0-8.12-0.396-16.148-1.135-24.075l-85.883-85.883L22.261,287.198z"/>
<path style="fill:#937D75;" d="M122.435,131.372c-27.662,0-50.087,22.425-50.087,50.087v89.043h100.174v-89.043  C172.522,153.797,150.097,131.372,122.435,131.372z"/>
<path style="fill:#5D4036;" d="M72.348,270.503v66.783c0,27.662,22.425,50.087,50.087,50.087s50.087-22.425,50.087-50.087v-66.783  H72.348z"/>
<path style="fill:#785E55;" d="M72.348,237.111c-27.662,0-50.087,22.425-50.087,50.087h150.261v-50.087  C144.859,237.111,72.348,237.111,72.348,237.111z"/>
<path style="fill:#FECD99;" d="M72.348,187.025c0,27.662,22.425,50.087,50.087,50.087h58.435v-50.087H72.348z"/>
<path style="fill:#937D75;" d="M389.565,131.372c27.662,0,50.087,22.425,50.087,50.087v89.043H339.478v-89.043  C339.478,153.797,361.903,131.372,389.565,131.372z"/>
<path style="fill:#5D4036;" d="M439.652,270.503v66.783c0,27.662-22.425,50.087-50.087,50.087  c-27.662,0-50.087-22.425-50.087-50.087v-66.783H439.652z"/>
<path style="fill:#785E55;" d="M439.652,237.111c27.662,0,50.087,22.425,50.087,50.087H339.478v-50.087  C367.14,237.111,439.652,237.111,439.652,237.111z"/>
<path style="fill:#FEAA78;" d="M439.652,187.025c0,27.662-22.425,50.087-50.087,50.087H331.13v-50.087H439.652z"/>
<path style="fill:#FECD99;" d="M361.739,164.764l-18.933,189.384c-1.525,15.204-13.223,28.104-27.693,32.011l-1.247,12.511  c-1.837,18.276-18.354,33.224-36.719,33.224H256l-55.652-267.13L361.739,164.764L361.739,164.764z"/>
<path style="fill:#FFE3C6;" d="M256,164.764v267.13h-21.148c-18.365,0-34.883-14.948-36.719-33.224l-1.247-12.511  c-14.47-3.907-26.168-16.807-27.693-32.011L150.26,164.764H256z"/>
<path style="fill:#FFEEDD;" d="M343.93,109.134c30.397,0.401,54.906,25.144,54.906,55.63c0,30.731-24.91,55.652-55.652,55.652  c-8.693,0-16.918-1.992-24.242-5.554c-17.208,13.913-39.101,22.25-62.943,22.25l-55.652-80.696L256,75.72  c9.305-6.99,20.858-11.13,33.391-11.13C316.327,64.59,338.777,83.723,343.93,109.134z"/>
<path style="fill:#FFFFFF;" d="M256,75.72v161.391c-23.841,0-45.735-8.337-62.943-22.25c-7.324,3.562-15.549,5.554-24.242,5.554  c-30.742,0-55.652-24.921-55.652-55.652c0-30.486,24.509-55.229,54.906-55.63c5.153-25.411,27.603-44.544,54.539-44.544  C235.142,64.59,246.695,68.73,256,75.72z"/>
<polygon style="fill:#FEAA78;" points="256,365.029 246,375.029 256,385.029 276,385.029 276,365.029 "/>
<rect x="236" y="365.03" style="fill:#FECD99;" width="20" height="20"/>
<g>
</g>
<g>
</g>
<g>
</g>
<g>
</g>
<g>
</g>
<g>
</g>
<g>
</g>
<g>
</g>
<g>
</g>
<g>
</g>
<g>
</g>
<g>
</g>
<g>
</g>
<g>
</g>
<g>
</g>
</svg>
